<svg xmlns="http://www.w3.org/2000/svg" viewBox="0 0 61 60" width="61" height="60"><defs></defs><g transform="matrix(1,0,0,1,86.343392642,43.27351636)">
<g>
	<g transform="matrix(1,0,0,1,-55.340393802,-12.132435567)">
		<g>
			<path d="M25.312999725341797,-0.5 C25.312999725341797,13.472999572753906 13.972999572753906,24.812999725341797 0,24.812999725341797 C-13.972999572753906,24.812999725341797 -25.313000202178955,13.472999572753906 -25.313000202178955,-0.5 C-25.31279993057251,-14.472999572753906 -13.972999572753906,-25.813000202178955 0,-25.813000202178955 C13.972999572753906,-25.81279993057251 25.312999725341797,-14.472999572753906 25.312999725341797,-0.5 C25.312999725341797,-0.5 25.312999725341797,-0.5 25.312999725341797,-0.5 Z" fill="#5e8fcb"/>
		</g>
		<g>
			<g>
				<path d="M8.784816091302673,-24.293519436864585 C8.784816091302673,-24.293519436864585 12.715007002111633,-22.421373827448406 12.715007002111633,-22.421373827448406 C12.715007002111633,-22.421373827448406 16.379898261609924,-19.491639934027717 16.379898261609924,-19.491639934027717 C16.379898261609924,-19.491639934027717 19.516087771884486,-16.297651850858756 19.516087771884486,-16.297651850858756 C19.516087771884486,-16.297651850858756 21.85923007990459,-13.368012835107947 21.85923007990459,-13.368012835107947 C21.85923007990459,-13.368012835107947 23.40932518567024,-9.380974838893962 23.40932518567024,-9.380974838893962 C23.40932518567024,-9.380974838893962 24.695067609630314,-5.3929898731748835 24.695067609630314,-5.3929898731748835 C24.695067609630314,-5.3929898731748835 25.415162016118302,-0.8554589859577391 25.415162016118302,-0.8554589859577391 C25.415162016118302,-0.8554589859577391 23.259620872954656,-0.8554589859577391 23.259620872954656,-0.8554589859577391 C23.259620872954656,-0.8554589859577391 20.16511970722877,1.4876833220623666 20.16511970722877,1.4876833220623666 C20.16511970722877,1.4876833220623666 17.63437261996478,0.7382184033667727 17.63437261996478,0.7382184033667727 C17.63437261996478,0.7382184033667727 16.79016014933586,1.3000785428184827 16.79016014933586,1.3000785428184827 C16.79016014933586,1.3000785428184827 18.665242900332487,3.3627660730589923 18.665242900332487,3.3627660730589923 C18.665242900332487,3.3627660730589923 19.883714345556655,1.9566898485909405 19.883714345556655,1.9566898485909405 C19.883714345556655,1.9566898485909405 21.19693695710157,2.4256963751195144 21.19693695710157,2.4256963751195144 C21.19693695710157,2.4256963751195144 16.79016014933586,8.98801432604887 16.79016014933586,8.98801432604887 C16.79016014933586,8.98801432604887 11.915323784546672,4.48743693585493 11.915323784546672,4.48743693585493 C11.915323784546672,4.48743693585493 10.978257700994618,4.862642879955274 10.978257700994618,4.862642879955274 C10.978257700994618,4.862642879955274 16.32210059231238,10.863097077045495 16.32210059231238,10.863097077045495 C16.32210059231238,10.863097077045495 19.04044884443283,9.550821435005673 19.04044884443283,9.550821435005673 C19.04044884443283,9.550821435005673 13.884207117971528,17.80061735768777 13.884207117971528,17.80061735768777 C13.884207117971528,17.80061735768777 13.03999464734261,21.213477382108977 13.03999464734261,21.213477382108977 C13.03999464734261,21.213477382108977 2.8213153912356574,24.644337055901815 2.8213153912356574,24.644337055901815 C2.8213153912356574,24.644337055901815 0.10296713911520783,23.519666193105877 0.10296713911520783,23.519666193105877 C0.10296713911520783,23.519666193105877 1.2276380019111457,22.394048360804845 1.2276380019111457,22.394048360804845 C1.2276380019111457,22.394048360804845 0.8524320578108018,21.45698227725279 0.8524320578108018,21.45698227725279 C0.8524320578108018,21.45698227725279 -1.115506113302672,19.769500691112626 -1.115506113302672,19.769500691112626 C-1.115506113302672,19.769500691112626 -0.741247138707422,18.175823301788114 -0.741247138707422,18.175823301788114 C-0.741247138707422,18.175823301788114 -3.0843894467275277,17.237810248730966 -3.0843894467275277,17.237810248730966 C-3.0843894467275277,17.237810248730966 -10.959926394814374,16.019335189119374 -10.959926394814374,16.019335189119374 C-10.959926394814374,16.019335189119374 -14.61629041078254,10.769292880229841 -14.61629041078254,10.769292880229841 C-14.61629041078254,10.769292880229841 -13.865877618984996,6.268715490035902 -13.865877618984996,6.268715490035902 C-13.865877618984996,6.268715490035902 -10.490918061092088,4.20697854368791 -10.490918061092088,4.20697854368791 C-10.490918061092088,4.20697854368791 -10.021911534563515,2.1442946278348245 -10.021911534563515,2.1442946278348245 C-10.021911534563515,2.1442946278348245 -0.36604119460707807,1.0186767955337928 -0.36604119460707807,1.0186767955337928 C-0.36604119460707807,1.0186767955337928 -0.2722388049851361,3.1751612938151084 -0.2722388049851361,3.1751612938151084 C-0.2722388049851361,3.1751612938151084 4.134538002780573,4.394583322931794 4.134538002780573,4.394583322931794 C4.134538002780573,4.394583322931794 4.790198724660513,3.2689654906307624 4.790198724660513,3.2689654906307624 C4.790198724660513,3.2689654906307624 8.727969005897648,3.925573182015796 8.727969005897648,3.925573182015796 C8.727969005897648,3.925573182015796 11.352516675589868,2.9875601289586484 11.352516675589868,2.9875601289586484 C11.352516675589868,2.9875601289586484 11.446317258018098,-0.48120181855620103 11.446317258018098,-0.48120181855620103 C11.446317258018098,-0.48120181855620103 7.696151756024847,0.2692100696444868 7.696151756024847,0.2692100696444868 C7.696151756024847,0.2692100696444868 7.040487419757483,-1.324467319680025 7.040487419757483,-1.324467319680025 C7.040487419757483,-1.324467319680025 12.384330311075246,-3.2933524602985926 12.384330311075246,-3.2933524602985926 C12.384330311075246,-3.2933524602985926 12.4781345078909,-4.4180215159008185 12.4781345078909,-4.4180215159008185 C12.4781345078909,-4.4180215159008185 7.789952338453077,-5.356036376151678 7.789952338453077,-5.356036376151678 C7.789952338453077,-5.356036376151678 7.415693363857827,-2.1686815975026548 7.415693363857827,-2.1686815975026548 C7.415693363857827,-2.1686815975026548 6.008670169884681,-1.9810786254524828 6.008670169884681,-1.9810786254524828 C6.008670169884681,-1.9810786254524828 4.977803503904397,0.7382184033667727 4.977803503904397,0.7382184033667727 C4.977803503904397,0.7382184033667727 1.4152391667676056,-4.0437643484992805 1.4152391667676056,-4.0437643484992805 C1.4152391667676056,-4.0437643484992805 0.47817308321555174,-4.0437643484992805 0.47817308321555174,-4.0437643484992805 C0.47817308321555174,-4.0437643484992805 2.8213153912356574,-1.230666737251795 2.8213153912356574,-1.230666737251795 C2.8213153912356574,-1.230666737251795 1.8842493076836035,-0.2935988465060291 1.8842493076836035,-0.2935988465060291 C1.8842493076836035,-0.2935988465060291 -0.64744474908548,-3.6685584043989365 -0.64744474908548,-3.6685584043989365 C-0.64744474908548,-3.6685584043989365 -3.1781918363494697,-2.8243441265763067 -3.1781918363494697,-2.8243441265763067 C-3.1781918363494697,-2.8243441265763067 -3.7410007524999855,-1.9810786254524828 -3.7410007524999855,-1.9810786254524828 C-3.7410007524999855,-1.9810786254524828 -4.491412640700673,-1.9810786254524828 -4.491412640700673,-1.9810786254524828 C-4.491412640700673,-1.9810786254524828 -5.897487057975013,0.6444178209385427 -5.897487057975013,0.6444178209385427 C-5.897487057975013,0.6444178209385427 -7.866372198593581,0.5506136241228887 -7.866372198593581,0.5506136241228887 C-7.866372198593581,0.5506136241228887 -8.42823233804529,0.17540948721625682 -8.42823233804529,0.17540948721625682 C-8.42823233804529,0.17540948721625682 -9.553851977540035,-0.48120181855620103 -9.553851977540035,-0.48120181855620103 C-9.553851977540035,-0.48120181855620103 -8.897240671767577,-1.7934756534023109 -8.897240671767577,-1.7934756534023109 C-8.897240671767577,-1.7934756534023109 -8.33443175561706,-3.8561613764491085 -8.33443175561706,-3.8561613764491085 C-8.33443175561706,-3.8561613764491085 -4.959472197724153,-3.4809554323487646 -4.959472197724153,-3.4809554323487646 C-4.959472197724153,-3.4809554323487646 -5.616083503496611,-6.293104266897444 -5.616083503496611,-6.293104266897444 C-5.616083503496611,-6.293104266897444 -2.1473215559817618,-8.449592379566184 -2.1473215559817618,-8.449592379566184 C-2.1473215559817618,-8.449592379566184 3.2903219177642313,-9.949469186462466 3.2903219177642313,-9.949469186462466 C3.2903219177642313,-9.949469186462466 3.3841261145798853,-12.293558463987665 3.3841261145798853,-12.293558463987665 C3.3841261145798853,-12.293558463987665 2.5399100295635435,-13.418229326783603 2.5399100295635435,-13.418229326783603 C2.5399100295635435,-13.418229326783603 3.6655278618645752,-15.574716535855487 3.6655278618645752,-15.574716535855487 C3.6655278618645752,-15.574716535855487 2.8213153912356574,-15.574716535855487 2.8213153912356574,-15.574716535855487 C2.8213153912356574,-15.574716535855487 1.7904451108679496,-13.605832298833775 1.7904451108679496,-13.605832298833775 C1.7904451108679496,-13.605832298833775 2.0718504725400635,-11.918352519887321 2.0718504725400635,-11.918352519887321 C2.0718504725400635,-11.918352519887321 0.47817308321555174,-9.761866214412294 0.47817308321555174,-9.761866214412294 C0.47817308321555174,-9.761866214412294 -0.08463583293496413,-11.824551937459091 -0.08463583293496413,-11.824551937459091 C-0.08463583293496413,-11.824551937459091 -1.678315029453188,-12.105955491937493 -1.678315029453188,-12.105955491937493 C-1.678315029453188,-12.105955491937493 2.7275148088074275,-17.73120374492737 2.7275148088074275,-17.73120374492737 C2.7275148088074275,-17.73120374492737 6.196274949128565,-16.79318888467651 6.196274949128565,-16.79318888467651 C6.196274949128565,-16.79318888467651 4.883999307088743,-15.762319507905659 4.883999307088743,-15.762319507905659 C4.883999307088743,-15.762319507905659 6.008670169884681,-14.824304647654799 6.008670169884681,-14.824304647654799 C6.008670169884681,-14.824304647654799 9.665035089449702,-19.231080551823652 9.665035089449702,-19.231080551823652 C9.665035089449702,-19.231080551823652 6.196274949128565,-23.355978061366272 6.196274949128565,-23.355978061366272 C6.196274949128565,-23.355978061366272 8.784816091302673,-24.293519436864585 8.784816091302673,-24.293519436864585 C8.784816091302673,-24.293519436864585 8.784816091302673,-24.293519436864585 8.784816091302673,-24.293519436864585 Z" fill="#7fbb55"/>
			</g>
		</g>
		<g>
			<g>
				<path d="M-21.64732935163397,-13.605832298833775 C-21.64732935163397,-13.605832298833775 -19.11591992787453,-14.543847159084635 -19.11591992787453,-14.543847159084635 C-19.11591992787453,-14.543847159084635 -19.11591992787453,-15.4809150498304 -19.11591992787453,-15.4809150498304 C-19.11591992787453,-15.4809150498304 -18.460257398800877,-15.4809150498304 -18.460257398800877,-15.4809150498304 C-18.460257398800877,-15.4809150498304 -18.460257398800877,-14.543847159084635 -18.460257398800877,-14.543847159084635 C-18.460257398800877,-14.543847159084635 -17.147035690852817,-14.637649548706577 -17.147035690852817,-14.637649548706577 C-17.147035690852817,-14.637649548706577 -13.396871092456422,-20.35575141461959 -13.396871092456422,-20.35575141461959 C-13.396871092456422,-20.35575141461959 -17.709844607003333,-18.57447014964805 -17.709844607003333,-18.57447014964805 C-17.709844607003333,-18.57447014964805 -17.709844607003333,-18.668271635673136 -17.709844607003333,-18.668271635673136" fill="#7fbb55" stroke="#000000" stroke-width="1.6384999752044678" stroke-linecap="round" stroke-linejoin="round"/>
			</g>
		</g>
		<g>
			<g>
				<path d="M-13.210215089911344,-16.325128424056174 C-13.210215089911344,-16.325128424056174 -9.366249005489863,-17.918806716977542 -9.366249005489863,-17.918806716977542 C-9.366249005489863,-17.918806716977542 -5.897487057975013,-18.38686717759788 -5.897487057975013,-18.38686717759788 C-5.897487057975013,-18.38686717759788 -2.1473215559817618,-22.324729625714326 -2.1473215559817618,-22.324729625714326 C-2.1473215559817618,-22.324729625714326 -6.459349004620435,-22.887254812452056 -6.459349004620435,-22.887254812452056 C-6.459349004620435,-22.887254812452056 -9.366249005489863,-19.700087981949082 -9.366249005489863,-19.700087981949082 C-9.366249005489863,-19.700087981949082 -13.210215089911344,-16.325128424056174 -13.210215089911344,-16.325128424056174 C-13.210215089911344,-16.325128424056174 -13.210215089911344,-16.325128424056174 -13.210215089911344,-16.325128424056174 Z" fill="#7fbb55" stroke="#000000" stroke-width="1.6384999752044678" stroke-linecap="round" stroke-linejoin="round"/>
			</g>
		</g>
		<g>
			<g>
				<path d="M-5.991289447596955,-7.606325071248648 C-5.991289447596955,-7.606325071248648 -3.5533977804498136,-8.261989407516012 -3.5533977804498136,-8.261989407516012 C-3.5533977804498136,-8.261989407516012 -4.771869225673981,-10.512278102612981 -4.771869225673981,-10.512278102612981 C-4.771869225673981,-10.512278102612981 -4.1162066966003295,-11.075087018763497 -4.1162066966003295,-11.075087018763497 C-4.1162066966003295,-11.075087018763497 -4.865671615295923,-11.824551937459091 -4.865671615295923,-11.824551937459091 C-4.865671615295923,-11.824551937459091 -5.991289447596955,-7.606325071248648 -5.991289447596955,-7.606325071248648 C-5.991289447596955,-7.606325071248648 -5.991289447596955,-7.606325071248648 -5.991289447596955,-7.606325071248648 Z" fill="#7fbb55" stroke="#000000" stroke-width="1.6384999752044678" stroke-linecap="round" stroke-linejoin="round"/>
			</g>
		</g>
		<g>
			<g>
				<path d="M-6.365546614998493,-8.730995934044586 C-6.365546614998493,-8.730995934044586 -6.085090030025185,-10.230872740940868 -6.085090030025185,-10.230872740940868 C-6.085090030025185,-10.230872740940868 -7.678769226543409,-9.200004267766872 -7.678769226543409,-9.200004267766872 C-7.678769226543409,-9.200004267766872 -6.365546614998493,-8.730995934044586 -6.365546614998493,-8.730995934044586 C-6.365546614998493,-8.730995934044586 -6.365546614998493,-8.730995934044586 -6.365546614998493,-8.730995934044586 Z" fill="#7fbb55" stroke="#000000" stroke-width="1.6384999752044678" stroke-linecap="round" stroke-linejoin="round"/>
			</g>
		</g>
		<g>
			<g>
				<path d="M25.415162016118302,-0.8554589859577391 C25.415162016118302,-0.8554589859577391 23.259620872954656,-0.8554589859577391 23.259620872954656,-0.8554589859577391 C23.259620872954656,-0.8554589859577391 20.16511970722877,1.4876833220623666 20.16511970722877,1.4876833220623666 C20.16511970722877,1.4876833220623666 17.63437261996478,0.7382184033667727 17.63437261996478,0.7382184033667727 C17.63437261996478,0.7382184033667727 16.79016014933586,1.3000785428184827 16.79016014933586,1.3000785428184827 C16.79016014933586,1.3000785428184827 18.665242900332487,3.3627660730589923 18.665242900332487,3.3627660730589923 C18.665242900332487,3.3627660730589923 19.883714345556655,1.9566898485909405 19.883714345556655,1.9566898485909405 C19.883714345556655,1.9566898485909405 21.19693695710157,2.4256963751195144 21.19693695710157,2.4256963751195144 C21.19693695710157,2.4256963751195144 16.79016014933586,8.98801432604887 16.79016014933586,8.98801432604887 C16.79016014933586,8.98801432604887 11.915323784546672,4.48743693585493 11.915323784546672,4.48743693585493 C11.915323784546672,4.48743693585493 10.978257700994618,4.862642879955274 10.978257700994618,4.862642879955274 C10.978257700994618,4.862642879955274 16.32210059231238,10.863097077045495 16.32210059231238,10.863097077045495 C16.32210059231238,10.863097077045495 19.04044884443283,9.550821435005673 19.04044884443283,9.550821435005673 C19.04044884443283,9.550821435005673 13.884207117971528,17.80061735768777 13.884207117971528,17.80061735768777 C13.884207117971528,17.80061735768777 13.03999464734261,21.213477382108977 13.03999464734261,21.213477382108977M2.8213153912356574,24.644337055901815 C2.8213153912356574,24.644337055901815 0.10296713911520783,23.519666193105877 0.10296713911520783,23.519666193105877 C0.10296713911520783,23.519666193105877 1.2276380019111457,22.394048360804845 1.2276380019111457,22.394048360804845 C1.2276380019111457,22.394048360804845 0.8524320578108018,21.45698227725279 0.8524320578108018,21.45698227725279 C0.8524320578108018,21.45698227725279 -1.115506113302672,19.769500691112626 -1.115506113302672,19.769500691112626 C-1.115506113302672,19.769500691112626 -0.741247138707422,18.175823301788114 -0.741247138707422,18.175823301788114 C-0.741247138707422,18.175823301788114 -3.0843894467275277,17.237810248730966 -3.0843894467275277,17.237810248730966 C-3.0843894467275277,17.237810248730966 -10.959926394814374,16.019335189119374 -10.959926394814374,16.019335189119374 C-10.959926394814374,16.019335189119374 -14.61629041078254,10.769292880229841 -14.61629041078254,10.769292880229841 C-14.61629041078254,10.769292880229841 -13.865877618984996,6.268715490035902 -13.865877618984996,6.268715490035902 C-13.865877618984996,6.268715490035902 -10.490918061092088,4.20697854368791 -10.490918061092088,4.20697854368791 C-10.490918061092088,4.20697854368791 -10.021911534563515,2.1442946278348245 -10.021911534563515,2.1442946278348245 C-10.021911534563515,2.1442946278348245 -0.36604119460707807,1.0186767955337928 -0.36604119460707807,1.0186767955337928 C-0.36604119460707807,1.0186767955337928 -0.2722388049851361,3.1751612938151084 -0.2722388049851361,3.1751612938151084 C-0.2722388049851361,3.1751612938151084 4.134538002780573,4.394583322931794 4.134538002780573,4.394583322931794 C4.134538002780573,4.394583322931794 4.790198724660513,3.2689654906307624 4.790198724660513,3.2689654906307624 C4.790198724660513,3.2689654906307624 8.727969005897648,3.925573182015796 8.727969005897648,3.925573182015796 C8.727969005897648,3.925573182015796 11.352516675589868,2.9875601289586484 11.352516675589868,2.9875601289586484 C11.352516675589868,2.9875601289586484 11.446317258018098,-0.48120181855620103 11.446317258018098,-0.48120181855620103 C11.446317258018098,-0.48120181855620103 7.696151756024847,0.2692100696444868 7.696151756024847,0.2692100696444868 C7.696151756024847,0.2692100696444868 7.040487419757483,-1.324467319680025 7.040487419757483,-1.324467319680025 C7.040487419757483,-1.324467319680025 12.384330311075246,-3.2933524602985926 12.384330311075246,-3.2933524602985926 C12.384330311075246,-3.2933524602985926 12.4781345078909,-4.4180215159008185 12.4781345078909,-4.4180215159008185 C12.4781345078909,-4.4180215159008185 7.789952338453077,-5.356036376151678 7.789952338453077,-5.356036376151678 C7.789952338453077,-5.356036376151678 7.415693363857827,-2.1686815975026548 7.415693363857827,-2.1686815975026548 C7.415693363857827,-2.1686815975026548 6.008670169884681,-1.9810786254524828 6.008670169884681,-1.9810786254524828 C6.008670169884681,-1.9810786254524828 4.977803503904397,0.7382184033667727 4.977803503904397,0.7382184033667727 C4.977803503904397,0.7382184033667727 1.4152391667676056,-4.0437643484992805 1.4152391667676056,-4.0437643484992805 C1.4152391667676056,-4.0437643484992805 0.47817308321555174,-4.0437643484992805 0.47817308321555174,-4.0437643484992805 C0.47817308321555174,-4.0437643484992805 2.8213153912356574,-1.230666737251795 2.8213153912356574,-1.230666737251795 C2.8213153912356574,-1.230666737251795 1.8842493076836035,-0.2935988465060291 1.8842493076836035,-0.2935988465060291 C1.8842493076836035,-0.2935988465060291 -0.64744474908548,-3.6685584043989365 -0.64744474908548,-3.6685584043989365 C-0.64744474908548,-3.6685584043989365 -3.1781918363494697,-2.8243441265763067 -3.1781918363494697,-2.8243441265763067 C-3.1781918363494697,-2.8243441265763067 -3.7410007524999855,-1.9810786254524828 -3.7410007524999855,-1.9810786254524828 C-3.7410007524999855,-1.9810786254524828 -4.491412640700673,-1.9810786254524828 -4.491412640700673,-1.9810786254524828 C-4.491412640700673,-1.9810786254524828 -5.897487057975013,0.6444178209385427 -5.897487057975013,0.6444178209385427 C-5.897487057975013,0.6444178209385427 -7.866372198593581,0.5506136241228887 -7.866372198593581,0.5506136241228887 C-7.866372198593581,0.5506136241228887 -8.42823233804529,0.17540948721625682 -8.42823233804529,0.17540948721625682 C-8.42823233804529,0.17540948721625682 -9.553851977540035,-0.48120181855620103 -9.553851977540035,-0.48120181855620103 C-9.553851977540035,-0.48120181855620103 -8.897240671767577,-1.7934756534023109 -8.897240671767577,-1.7934756534023109 C-8.897240671767577,-1.7934756534023109 -8.33443175561706,-3.8561613764491085 -8.33443175561706,-3.8561613764491085 C-8.33443175561706,-3.8561613764491085 -4.959472197724153,-3.4809554323487646 -4.959472197724153,-3.4809554323487646 C-4.959472197724153,-3.4809554323487646 -5.616083503496611,-6.293104266897444 -5.616083503496611,-6.293104266897444 C-5.616083503496611,-6.293104266897444 -2.1473215559817618,-8.449592379566184 -2.1473215559817618,-8.449592379566184 C-2.1473215559817618,-8.449592379566184 3.2903219177642313,-9.949469186462466 3.2903219177642313,-9.949469186462466 C3.2903219177642313,-9.949469186462466 3.3841261145798853,-12.293558463987665 3.3841261145798853,-12.293558463987665 C3.3841261145798853,-12.293558463987665 2.5399100295635435,-13.418229326783603 2.5399100295635435,-13.418229326783603 C2.5399100295635435,-13.418229326783603 3.6655278618645752,-15.574716535855487 3.6655278618645752,-15.574716535855487 C3.6655278618645752,-15.574716535855487 2.8213153912356574,-15.574716535855487 2.8213153912356574,-15.574716535855487 C2.8213153912356574,-15.574716535855487 1.7904451108679496,-13.605832298833775 1.7904451108679496,-13.605832298833775 C1.7904451108679496,-13.605832298833775 2.0718504725400635,-11.918352519887321 2.0718504725400635,-11.918352519887321 C2.0718504725400635,-11.918352519887321 0.47817308321555174,-9.761866214412294 0.47817308321555174,-9.761866214412294 C0.47817308321555174,-9.761866214412294 -0.08463583293496413,-11.824551937459091 -0.08463583293496413,-11.824551937459091 C-0.08463583293496413,-11.824551937459091 -1.678315029453188,-12.105955491937493 -1.678315029453188,-12.105955491937493 C-1.678315029453188,-12.105955491937493 2.7275148088074275,-17.73120374492737 2.7275148088074275,-17.73120374492737 C2.7275148088074275,-17.73120374492737 6.196274949128565,-16.79318888467651 6.196274949128565,-16.79318888467651 C6.196274949128565,-16.79318888467651 4.883999307088743,-15.762319507905659 4.883999307088743,-15.762319507905659 C4.883999307088743,-15.762319507905659 6.008670169884681,-14.824304647654799 6.008670169884681,-14.824304647654799 C6.008670169884681,-14.824304647654799 9.665035089449702,-19.231080551823652 9.665035089449702,-19.231080551823652 C9.665035089449702,-19.231080551823652 6.196274949128565,-23.355978061366272 6.196274949128565,-23.355978061366272 C6.196274949128565,-23.355978061366272 8.784816091302673,-24.293519436864585 8.784816091302673,-24.293519436864585" fill="none" stroke="#000000" stroke-width="1.6384999752044678" stroke-linecap="round" stroke-linejoin="round"/>
			</g>
		</g>
		<g>
			<path d="M25.312999725341797,-0.5 C25.312999725341797,13.472999572753906 13.972999572753906,24.812999725341797 0,24.812999725341797 C-13.972999572753906,24.812999725341797 -25.313000202178955,13.472999572753906 -25.313000202178955,-0.5 C-25.31279993057251,-14.472999572753906 -13.972999572753906,-25.813000202178955 0,-25.813000202178955 C13.972999572753906,-25.81279993057251 25.312999725341797,-14.472999572753906 25.312999725341797,-0.5 C25.312999725341797,-0.5 25.312999725341797,-0.5 25.312999725341797,-0.5 Z" fill="none" stroke="#000000" stroke-width="2.125" stroke-linecap="round" stroke-linejoin="round"/>
		</g>
	</g>
	<g transform="matrix(1,0,0,1,-55.340393802,-12.132435567)">
		<g transform="matrix(1.555317862,0,0,1.60917053,-15.033568519,-15.141881902)">
			<path d="M25.31377084795804,8.878129739948236 C25.31377084795804,17.67513487045744 18.174656991993288,24.814253250271577 9.37764959955939,24.814253250271577 C0.5806422071254929,24.814253250271577 -6.558473910763951,17.67513487045744 -6.558473910763951,8.878129739948236 C-6.558473910763951,0.08112234751433789 0.5806422071254929,-7.057996032299798 9.37764959955939,-7.057996032299798 C18.174656991993288,-7.057996032299798 25.31377084795804,0.08112234751433789 25.31377084795804,8.878129739948236 C25.31377084795804,8.878129739948236 25.31377084795804,8.878129739948236 25.31377084795804,8.878129739948236 Z" fill="#bbbbc3" fill-opacity="0.8" stroke="#000000" stroke-width="1.635200023651123" stroke-linecap="round" stroke-linejoin="round"/>
		</g>
		<g transform="matrix(1.555317862,0,0,1.60917053,-15.033568519,-15.141881902)">
			<path d="M9.37764959955939,8.710914695167958 C9.37764959955939,8.710914695167958 9.37764959955939,-1.6336902619041211 9.37764959955939,-1.6336902619041211" fill="none" stroke="#000000" stroke-width="2.635200023651123" stroke-linecap="round" stroke-linejoin="round"/>
		</g>
		<g transform="matrix(1.555317862,0,0,1.60917053,-15.033568519,-15.141881902)">
			<path d="M9.407296646497343,9.060757539579754 C9.407296646497343,9.060757539579754 16.367342972295774,13.0797724754093 16.367342972295774,13.0797724754093" fill="none" stroke="#000000" stroke-width="2.635200023651123" stroke-linecap="round" stroke-linejoin="round"/>
		</g>
		<g transform="matrix(1.555317862,0,0,1.60917053,-15.033568519,-15.141881902)">
			<path d="M10.820888744683089,8.878129739948236 C10.820888744683089,9.675051047431225 10.174573168967072,10.321368885071934 9.37764959955939,10.321368885071934 C8.580723768227017,10.321368885071934 7.934408192511,9.675051047431225 7.934408192511,8.878129739948236 C7.934408192511,8.081203908615862 8.580723768227017,7.433700822436549 9.37764959955939,7.433700822436549 C10.174573168967072,7.433700822436549 10.820888744683089,8.081203908615862 10.820888744683089,8.878129739948236 C10.820888744683089,8.878129739948236 10.820888744683089,8.878129739948236 10.820888744683089,8.878129739948236 Z" fill="#000000" stroke="#000000" stroke-width="1.0541000366210938" stroke-linecap="round" stroke-linejoin="round"/>
		</g>
	</g>
</g>
<g>
	<path d="M-86.34339264227594,-43.27351635963123 L-25.234080141930033,-43.27351635963123 L-25.234080141930033,16.759575850148167 L-86.34339264227594,16.759575850148167 L-86.34339264227594,-43.27351635963123 Z" transform="matrix(1,0,0,1,0,0)" fill="none"/>
</g></g></svg>